<?xml version="1.0" encoding="UTF-8" standalone="no"?>
<!-- Created with Inkscape (http://www.inkscape.org/) -->
<svg xmlns:rdf="http://www.w3.org/1999/02/22-rdf-syntax-ns#" xmlns="http://www.w3.org/2000/svg" height="48" width="48" version="1.1" xmlns:cc="http://creativecommons.org/ns#" xmlns:xlink="http://www.w3.org/1999/xlink" xmlns:dc="http://purl.org/dc/elements/1.1/">
 <defs>
  <filter id="filter52861" height="1" width="1" color-interpolation-filters="sRGB" y="0" x="0">
   <feColorMatrix result="result2" type="saturate" values="1" in="SourceGraphic"/>
   <feFlood result="result1" flood-opacity="1" flood-color="rgb(254,102,0)"/>
   <feBlend result="result3" in="result1" in2="result2" mode="multiply"/>
   <feComposite operator="in" in2="SourceGraphic" result="result4"/>
  </filter>
  <linearGradient id="linearGradient38339-9" y2="26.144" gradientUnits="userSpaceOnUse" x2="39.688" gradientTransform="matrix(0.997,0.0773,-0.0773,0.997,24.143376,2.0531319)" y1="26.144" x1="13.387">
   <stop stop-color="#EBEBEB" offset="0"/>
   <stop stop-color="#EAEAEA" offset="1"/>
  </linearGradient>
  <linearGradient id="linearGradient38336-8" y2="33.207" gradientUnits="userSpaceOnUse" x2="27.986" gradientTransform="matrix(0.997,0.0773,-0.0773,0.997,24.143376,2.0531319)" y1="32.205" x1="14.073">
   <stop stop-color="#F8F8F8" offset="0"/>
   <stop stop-color="#C9C9C9" offset="1"/>
  </linearGradient>
  <linearGradient id="linearGradient38333-2" y2="24.568" gradientUnits="userSpaceOnUse" x2="39.295" gradientTransform="matrix(0.997,0.0773,-0.0773,0.997,24.143376,2.0531319)" y1="34.671" x1="30.714">
   <stop stop-color="#9F9F9F" offset="0"/>
   <stop stop-color="#828282" offset="1"/>
  </linearGradient>
  <linearGradient id="linearGradient38321-6" y2="31.968" gradientUnits="userSpaceOnUse" x2="32.954" gradientTransform="translate(22.939976,5.0567319)" y1="25.446" x1="36.438">
   <stop stop-color="#FFF" offset="0"/>
   <stop stop-color="#FFF" offset="1"/>
  </linearGradient>
  <linearGradient id="linearGradient38318-7" y2="31.015" gradientUnits="userSpaceOnUse" x2="32.954" gradientTransform="translate(22.939976,5.0567319)" y1="24.493" x1="36.438">
   <stop stop-color="#FFF" offset="0"/>
   <stop stop-color="#FFF" offset="1"/>
  </linearGradient>
  <linearGradient id="linearGradient38315-8" y2="31.661" gradientUnits="userSpaceOnUse" x2="32.954" gradientTransform="translate(22.939976,5.0567319)" y1="25.139" x1="36.439">
   <stop stop-color="#000" offset="0"/>
   <stop stop-color="#6A6A6A" offset="1"/>
  </linearGradient>
  <linearGradient id="linearGradient38312-7" y2="30.708" gradientUnits="userSpaceOnUse" x2="32.954" gradientTransform="translate(22.939976,5.0567319)" y1="24.185" x1="36.439">
   <stop stop-color="#000" offset="0"/>
   <stop stop-color="#6A6A6A" offset="1"/>
  </linearGradient>
  <linearGradient id="linearGradient40144-9" y2="31.472" gradientUnits="userSpaceOnUse" x2="21.771" gradientTransform="translate(44.911676,5.7428936)" y1="31.472" x1="21.1">
   <stop stop-color="#2A2A2A" offset="0"/>
   <stop stop-color="#585858" offset="0.4743"/>
   <stop stop-color="#878787" offset="1"/>
  </linearGradient>
 </defs>
 <metadata>
  <rdf:RDF>
   <cc:Work rdf:about="">
    <dc:format>image/svg+xml</dc:format>
    <dc:type rdf:resource="http://purl.org/dc/dcmitype/StillImage"/>
    <dc:title/>
   </cc:Work>
  </rdf:RDF>
 </metadata>
 <g id="switch" fill-rule="nonzero" transform="translate(-369.81602,-245.703)">
  <g transform="matrix(2.1251899,0,0,2.1251899,404.97773,429.04188)" filter="url(#filter52861)" fill="#FFF"></g>
  <g transform="matrix(1.4970401,0,0,1.4970401,321.44914,220.96867)">
   <path stroke-linejoin="round" d="m61.14,27.857c-0.49934-0.10288-12.6-3.5-13.2-3.7s-1.4-0.2-1.7-0.1-10.3,5.9-10.9,6.2c-0.1,0-0.1,0.1-0.2,0.2-0.7,0.6-0.7,1.5-0.7,1.5v-0.1,0.1l0.2,2.6c0,0.5,0.1,0.7,0.5,0.9,0,0,13,5.2,14.5,5.6h0.2c0.7,0.1,0.9,0.1,1.2-0.2l0.1-0.1c0.3-0.2,10.2-7.8,10.5-8.1s0.3-0.5,0.4-0.8c0-0.3,0.2-2.3,0.2-2.7v-0.1c0-0.4-0.35368-1.0462-1.1-1.2zm-10.6,12.8v0.1-0.1zm10.3-11.3c0.4-0.3,0.6-0.5,0.6-0.5s-0.3,0.2-0.7,0.5c-0.7,0.5-1.6,1.1-2.6,1.9,1.7-1.2,3.2-2.2,3.6-2.5-0.1,0.1-0.4,0.3-0.9,0.6z" stroke="#000" stroke-linecap="round" stroke-miterlimit="4" stroke-width="2.92729998" fill="#000"/>
   <path d="m47.94,24.257c-0.6-0.2-1.4-0.2-1.7-0.1s-10.3,5.8-10.9,6.2c-0.5,0.3-0.7,0.9,0,1.2,0.7,0.2,13.8,4.5,14.3,4.6,0.6,0.2,1.5,0.2,1.8-0.1,0.3-0.2,10.015-6.9277,10.315-7.2277s-0.29497-0.83214-0.7155-0.97231c-0.47947-0.15982-12.6-3.5-13.2-3.7l0.1,0.1z" fill="url(#linearGradient38339-9)"/>
   <path fill="url(#linearGradient38336-8)" d="m34.54,32.057c0-0.5,0.3-0.8,0.7-0.7,0.3,0.1,14.4,4.7,14.9,5.1,0.5,0.3,0.8,0.5,0.8,0.9s-0.2,2.7-0.2,3.1-0.3,0.8-0.9,0.6c-1.5-0.4-14.5-5.6-14.5-5.6-0.4-0.2-0.5-0.4-0.5-0.9l-0.3-2.5z"/>
   <path d="m51.24,40.857c-0.3,0.2-0.62266-0.03315-0.62266-0.59944,0-0.5,0.12266-2.6006,0.12266-3.0006s0.2-0.8,0.5-1,10.1-7.1,10.5-7.4,0.6,0.3,0.5,0.6c0,0.3-0.2,2.4-0.2,2.7s-0.1,0.5-0.4,0.7c-0.3,0.3-10.3,7.8-10.5,8.1l0.1-0.1z" fill="url(#linearGradient38333-2)"/>
   <path d="m35.14,31.157c-0.1,0,0-0.5,0.3-0.8-0.9,0.6-0.9,1.7-0.9,1.7s0.1-0.5,0.6-0.5c1.8,0.6,14.2,4.9,14.7,5.1s0.56742,0.73371,0.56742,1.2337l0.2221,2.7895,0.41048-2.7232c0-0.5,0.2-1.3,0.8-1.7,0.3-0.2,7.857-5.5438,9.9917-7.4504-2.0281,1.0802-10.055,7.3504-11.159,7.3504-0.85074,0-15.433-5-15.533-5z" fill="#FFF"/>
   <path fill="#FFF" d="m60.64,29.657c0.5-0.4,0.9-0.6,0.9-0.6s-0.3,0.2-0.9,0.6z"/>
   <path d="m51.317,40.791c-0.3,0.3-0.69887,0.53202-1.4099,0.28839,0.61049,0.04363,0.7442-0.59944,0.7442-0.59944s0.0779,0.54307,0.66573,0.31105z" fill="#848484"/>
   <path d="m61.518,28.991c0.50145-0.24132,0.71178,0.01963,0.72727,0.44835,0.07231-0.44132,0.05682-1.2343-1.193-1.5808,0,0,1.0033,0.49669,0.4657,1.1324z" fill="#545454"/>
   <path opacity="0.12999998" d="m62.103,31.278-10.663,7.7789,0,0.4,10.636-7.8828,0.16406-0.41719-0.13672,0.12109z" fill="url(#linearGradient38321-6)"/>
   <path opacity="0.12999998" d="m62.185,30.18-10.845,7.8766,0,0.4,10.827-8.0117,0.01797-0.26484z" fill="url(#linearGradient38318-7)"/>
   <path opacity="0.12999998" d="m62.24,30.857-10.9,7.9,0,0.4,10.8-8,0-0.3,0.1,0z" fill="url(#linearGradient38315-8)"/>
   <path opacity="0.12999998" d="m62.24,29.857-10.9,7.9,0,0.4,10.851-8.05,0.04922-0.25z" fill="url(#linearGradient38312-7)"/>
   <g transform="matrix(0.99929321,0.03759088,-0.03759088,0.99929321,0.96306833,-0.75216797)">
    <g transform="translate(-28.074065,-4.3417302)">
     <path d="m66.012,36.843,0,0.6,0.65499,0.20638,0.0164-0.56235-0.67139-0.24403,0,0z" fill="url(#linearGradient40144-9)"/>
     <path opacity="0.21999996" d="m66.012,37.443-0.3,0.2,0-1.2,1.1714,0.34403-0.2,0.3-0.67139-0.24403,0,0.6z" fill="#000"/>
     <path opacity="0.72000002" d="m66.867,38.049,0.01641-1.2624-0.2,0.3-0.01641,0.56235-0.65499-0.20638-0.3,0.2,1.155,0.40638z" fill-opacity="0.6745098" fill="#FFF"/>
    </g>
    <g transform="translate(-26.705775,-3.8947265)">
     <path d="m66.012,36.843,0,0.6,0.65499,0.20638,0.0164-0.56235-0.67139-0.24403,0,0z" fill="url(#linearGradient40144-9)"/>
     <path opacity="0.21999996" d="m66.012,37.443-0.3,0.2,0-1.2,1.1714,0.34403-0.2,0.3-0.67139-0.24403,0,0.6z" fill="#000"/>
     <path opacity="0.72000002" d="m66.867,38.049,0.01641-1.2624-0.2,0.3-0.01641,0.56235-0.65499-0.20638-0.3,0.2,1.155,0.40638z" fill-opacity="0.6745098" fill="#FFF"/>
    </g>
    <g transform="translate(-25.337482,-3.3618574)">
     <path d="m66.012,36.843,0,0.6,0.65499,0.20638,0.0164-0.56235-0.67139-0.24403,0,0z" fill="url(#linearGradient40144-9)"/>
     <path opacity="0.21999996" d="m66.012,37.443-0.3,0.2,0-1.2,1.1714,0.34403-0.2,0.3-0.67139-0.24403,0,0.6z" fill="#000"/>
     <path opacity="0.72000002" d="m66.867,38.049,0.01641-1.2624-0.2,0.3-0.01641,0.56235-0.65499-0.20638-0.3,0.2,1.155,0.40638z" fill-opacity="0.6745098" fill="#FFF"/>
    </g>
    <g transform="translate(-23.96919,-2.9216128)">
     <path d="m66.012,36.843,0,0.6,0.65499,0.20638,0.0164-0.56235-0.67139-0.24403,0,0z" fill="url(#linearGradient40144-9)"/>
     <path opacity="0.21999996" d="m66.012,37.443-0.3,0.2,0-1.2,1.1714,0.34403-0.2,0.3-0.67139-0.24403,0,0.6z" fill="#000"/>
     <path opacity="0.72000002" d="m66.867,38.049,0.01641-1.2624-0.2,0.3-0.01641,0.56235-0.65499-0.20638-0.3,0.2,1.155,0.40638z" fill-opacity="0.6745098" fill="#FFF"/>
    </g>
    <g transform="translate(-0.196898,0)">
     <g transform="translate(-27.877167,-2.6138348)">
      <path d="m66.012,36.843,0,0.6,0.65499,0.20638,0.0164-0.56235-0.67139-0.24403,0,0z" fill="url(#linearGradient40144-9)"/>
      <path opacity="0.21999996" d="m66.012,37.443-0.3,0.2,0-1.2,1.1714,0.34403-0.2,0.3-0.67139-0.24403,0,0.6z" fill="#000"/>
      <path opacity="0.72000002" d="m66.867,38.049,0.01641-1.2624-0.2,0.3-0.01641,0.56235-0.65499-0.20638-0.3,0.2,1.155,0.40638z" fill-opacity="0.6745098" fill="#FFF"/>
     </g>
     <g transform="translate(-26.508877,-2.1668309)">
      <path d="m66.012,36.843,0,0.6,0.65499,0.20638,0.0164-0.56235-0.67139-0.24403,0,0z" fill="url(#linearGradient40144-9)"/>
      <path opacity="0.21999996" d="m66.012,37.443-0.3,0.2,0-1.2,1.1714,0.34403-0.2,0.3-0.67139-0.24403,0,0.6z" fill="#000"/>
      <path opacity="0.72000002" d="m66.867,38.049,0.01641-1.2624-0.2,0.3-0.01641,0.56235-0.65499-0.20638-0.3,0.2,1.155,0.40638z" fill-opacity="0.6745098" fill="#FFF"/>
     </g>
     <g transform="translate(-25.140587,-1.6339629)">
      <path d="m66.012,36.843,0,0.6,0.65499,0.20638,0.0164-0.56235-0.67139-0.24403,0,0z" fill="url(#linearGradient40144-9)"/>
      <path opacity="0.21999996" d="m66.012,37.443-0.3,0.2,0-1.2,1.1714,0.34403-0.2,0.3-0.67139-0.24403,0,0.6z" fill="#000"/>
      <path opacity="0.72000002" d="m66.867,38.049,0.01641-1.2624-0.2,0.3-0.01641,0.56235-0.65499-0.20638-0.3,0.2,1.155,0.40638z" fill-opacity="0.6745098" fill="#FFF"/>
     </g>
     <g transform="translate(-23.772287,-1.1937179)">
      <path d="m66.012,36.843,0,0.6,0.65499,0.20638,0.0164-0.56235-0.67139-0.24403,0,0z" fill="url(#linearGradient40144-9)"/>
      <path opacity="0.21999996" d="m66.012,37.443-0.3,0.2,0-1.2,1.1714,0.34403-0.2,0.3-0.67139-0.24403,0,0.6z" fill="#000"/>
      <path opacity="0.72000002" d="m66.867,38.049,0.01641-1.2624-0.2,0.3-0.01641,0.56235-0.65499-0.20638-0.3,0.2,1.155,0.40638z" fill-opacity="0.6745098" fill="#FFF"/>
     </g>
    </g>
    <g transform="translate(5.5081311,1.9070855)">
     <g transform="translate(-28.074065,-4.3417302)">
      <path d="m66.012,36.843,0,0.6,0.65499,0.20638,0.0164-0.56235-0.67139-0.24403,0,0z" fill="url(#linearGradient40144-9)"/>
      <path opacity="0.21999996" d="m66.012,37.443-0.3,0.2,0-1.2,1.1714,0.34403-0.2,0.3-0.67139-0.24403,0,0.6z" fill="#000"/>
      <path opacity="0.72000002" d="m66.867,38.049,0.01641-1.2624-0.2,0.3-0.01641,0.56235-0.65499-0.20638-0.3,0.2,1.155,0.40638z" fill-opacity="0.6745098" fill="#FFF"/>
     </g>
     <g transform="translate(-26.705775,-3.8947265)">
      <path d="m66.012,36.843,0,0.6,0.65499,0.20638,0.0164-0.56235-0.67139-0.24403,0,0z" fill="url(#linearGradient40144-9)"/>
      <path opacity="0.21999996" d="m66.012,37.443-0.3,0.2,0-1.2,1.1714,0.34403-0.2,0.3-0.67139-0.24403,0,0.6z" fill="#000"/>
      <path opacity="0.72000002" d="m66.867,38.049,0.01641-1.2624-0.2,0.3-0.01641,0.56235-0.65499-0.20638-0.3,0.2,1.155,0.40638z" fill-opacity="0.6745098" fill="#FFF"/>
     </g>
     <g transform="translate(-25.337482,-3.3618574)">
      <path d="m66.012,36.843,0,0.6,0.65499,0.20638,0.0164-0.56235-0.67139-0.24403,0,0z" fill="url(#linearGradient40144-9)"/>
      <path opacity="0.21999996" d="m66.012,37.443-0.3,0.2,0-1.2,1.1714,0.34403-0.2,0.3-0.67139-0.24403,0,0.6z" fill="#000"/>
      <path opacity="0.72000002" d="m66.867,38.049,0.01641-1.2624-0.2,0.3-0.01641,0.56235-0.65499-0.20638-0.3,0.2,1.155,0.40638z" fill-opacity="0.6745098" fill="#FFF"/>
     </g>
     <g transform="translate(-23.96919,-2.9216128)">
      <path d="m66.012,36.843,0,0.6,0.65499,0.20638,0.0164-0.56235-0.67139-0.24403,0,0z" fill="url(#linearGradient40144-9)"/>
      <path opacity="0.21999996" d="m66.012,37.443-0.3,0.2,0-1.2,1.1714,0.34403-0.2,0.3-0.67139-0.24403,0,0.6z" fill="#000"/>
      <path opacity="0.72000002" d="m66.867,38.049,0.01641-1.2624-0.2,0.3-0.01641,0.56235-0.65499-0.20638-0.3,0.2,1.155,0.40638z" fill-opacity="0.6745098" fill="#FFF"/>
     </g>
     <g transform="translate(-0.196898,0)">
      <g transform="translate(-27.877167,-2.6138348)">
       <path d="m66.012,36.843,0,0.6,0.65499,0.20638,0.0164-0.56235-0.67139-0.24403,0,0z" fill="url(#linearGradient40144-9)"/>
       <path opacity="0.21999996" d="m66.012,37.443-0.3,0.2,0-1.2,1.1714,0.34403-0.2,0.3-0.67139-0.24403,0,0.6z" fill="#000"/>
       <path opacity="0.72000002" d="m66.867,38.049,0.01641-1.2624-0.2,0.3-0.01641,0.56235-0.65499-0.20638-0.3,0.2,1.155,0.40638z" fill-opacity="0.6745098" fill="#FFF"/>
      </g>
      <g transform="translate(-26.508877,-2.1668309)">
       <path d="m66.012,36.843,0,0.6,0.65499,0.20638,0.0164-0.56235-0.67139-0.24403,0,0z" fill="url(#linearGradient40144-9)"/>
       <path opacity="0.21999996" d="m66.012,37.443-0.3,0.2,0-1.2,1.1714,0.34403-0.2,0.3-0.67139-0.24403,0,0.6z" fill="#000"/>
       <path opacity="0.72000002" d="m66.867,38.049,0.01641-1.2624-0.2,0.3-0.01641,0.56235-0.65499-0.20638-0.3,0.2,1.155,0.40638z" fill-opacity="0.6745098" fill="#FFF"/>
      </g>
      <g transform="translate(-25.140587,-1.6339629)">
       <path d="m66.012,36.843,0,0.6,0.65499,0.20638,0.0164-0.56235-0.67139-0.24403,0,0z" fill="url(#linearGradient40144-9)"/>
       <path opacity="0.21999996" d="m66.012,37.443-0.3,0.2,0-1.2,1.1714,0.34403-0.2,0.3-0.67139-0.24403,0,0.6z" fill="#000"/>
       <path opacity="0.72000002" d="m66.867,38.049,0.01641-1.2624-0.2,0.3-0.01641,0.56235-0.65499-0.20638-0.3,0.2,1.155,0.40638z" fill-opacity="0.6745098" fill="#FFF"/>
      </g>
      <g transform="translate(-23.772287,-1.1937179)">
       <path d="m66.012,36.843,0,0.6,0.65499,0.20638,0.0164-0.56235-0.67139-0.24403,0,0z" fill="url(#linearGradient40144-9)"/>
       <path opacity="0.21999996" d="m66.012,37.443-0.3,0.2,0-1.2,1.1714,0.34403-0.2,0.3-0.67139-0.24403,0,0.6z" fill="#000"/>
       <path opacity="0.72000002" d="m66.867,38.049,0.01641-1.2624-0.2,0.3-0.01641,0.56235-0.65499-0.20638-0.3,0.2,1.155,0.40638z" fill-opacity="0.6745098" fill="#FFF"/>
      </g>
     </g>
    </g>
   </g>
  </g>
 </g>
</svg>
